<svg width="42" height="45" viewBox="0 0 42 45" fill="none" xmlns="http://www.w3.org/2000/svg">
<path d="M19.8315 0.705194C20.5183 0.431602 21.2817 0.431602 21.9685 0.705194C24.1826 1.58693 24.6152 4.98236 27.2276 5.17139C29.0673 5.3045 30.8725 3.77088 32.7186 4.23063C33.4631 4.41607 34.1062 4.89074 34.5092 5.55245C35.7438 7.58013 34.1505 10.5604 36.1643 12.2429C37.5633 13.4113 39.8751 13.2601 41.0916 14.6924C41.6038 15.2957 41.8554 16.0827 41.7897 16.8761C41.595 19.2366 38.5855 20.7126 39.2469 23.2566C39.7046 25.0175 41.6355 26.2553 41.7897 28.1239C41.8554 28.9174 41.6038 29.7043 41.0916 30.3076C39.5629 32.1072 36.2578 31.5145 35.3047 33.9536C34.6354 35.6657 35.4947 37.829 34.5092 39.4475C34.1062 40.1092 33.4631 40.584 32.7186 40.7695C30.4265 41.3401 28.0999 38.8778 25.8942 40.2668C24.3194 41.2581 23.7552 43.5836 21.9685 44.2947C21.2817 44.5684 20.5183 44.5684 19.8315 44.2947C18.0448 43.5836 17.4805 41.2581 15.9058 40.2668C13.7274 38.8952 11.3347 41.3304 9.0814 40.7695C8.33684 40.584 7.69384 40.1092 7.29091 39.4475C6.05628 37.4199 7.64948 34.4394 5.63574 32.7571C4.2368 31.5886 1.92487 31.7401 0.708491 30.3076C0.196265 29.7043 -0.055349 28.9174 0.010233 28.1239C0.164676 26.2553 2.09527 25.0175 2.5531 23.2566C3.20777 20.7393 0.202483 19.2021 0.010233 16.8761C-0.055349 16.0827 0.196265 15.2957 0.708491 14.6924C2.23687 12.8923 5.54178 13.4856 6.49524 11.0464C7.16455 9.33431 6.30538 7.171 7.29091 5.55245C7.69384 4.89074 8.33684 4.41607 9.0814 4.23063C10.9275 3.77089 12.7327 5.30451 14.5723 5.17139C17.1848 4.98241 17.6174 1.58693 19.8315 0.705194Z" fill="#00874E"/>
<path d="M19.8315 0.705194C20.5183 0.431602 21.2817 0.431602 21.9685 0.705194C24.1826 1.58693 24.6152 4.98236 27.2276 5.17139C29.0673 5.3045 30.8725 3.77088 32.7186 4.23063C33.4631 4.41607 34.1062 4.89074 34.5092 5.55245C35.7438 7.58013 34.1505 10.5604 36.1643 12.2429C37.5633 13.4113 39.8751 13.2601 41.0916 14.6924C41.6038 15.2957 41.8554 16.0827 41.7897 16.8761C41.595 19.2366 38.5855 20.7126 39.2469 23.2566C39.7046 25.0175 41.6355 26.2553 41.7897 28.1239C41.8554 28.9174 41.6038 29.7043 41.0916 30.3076C39.5629 32.1072 36.2578 31.5145 35.3047 33.9536C34.6354 35.6657 35.4947 37.829 34.5092 39.4475C34.1062 40.1092 33.4631 40.584 32.7186 40.7695C30.4265 41.3401 28.0999 38.8778 25.8942 40.2668C24.3194 41.2581 23.7552 43.5836 21.9685 44.2947C21.2817 44.5684 20.5183 44.5684 19.8315 44.2947C18.0448 43.5836 17.4805 41.2581 15.9058 40.2668C13.7274 38.8952 11.3347 41.3304 9.0814 40.7695C8.33684 40.584 7.69384 40.1092 7.29091 39.4475C6.05628 37.4199 7.64948 34.4394 5.63574 32.7571C4.2368 31.5886 1.92487 31.7401 0.708491 30.3076C0.196265 29.7043 -0.055349 28.9174 0.010233 28.1239C0.164676 26.2553 2.09527 25.0175 2.5531 23.2566C3.20777 20.7393 0.202483 19.2021 0.010233 16.8761C-0.055349 16.0827 0.196265 15.2957 0.708491 14.6924C2.23687 12.8923 5.54178 13.4856 6.49524 11.0464C7.16455 9.33431 6.30538 7.171 7.29091 5.55245C7.69384 4.89074 8.33684 4.41607 9.0814 4.23063C10.9275 3.77089 12.7327 5.30451 14.5723 5.17139C17.1848 4.98241 17.6174 1.58693 19.8315 0.705194Z" fill="url(#paint0_linear_12_3644)" fill-opacity="0.8" style="mix-blend-mode:plus-lighter"/>
<path d="M20.4424 2.23828C20.7002 2.13563 20.9822 2.1222 21.2461 2.19922L21.3584 2.23828C21.5828 2.32773 21.8217 2.50268 22.1191 2.83984C22.4422 3.20612 22.7063 3.60529 23.1123 4.16602C23.7969 5.11164 24.9053 6.56835 26.9111 6.79883L27.1084 6.81738C28.4409 6.91379 29.7279 6.40279 30.501 6.14062C31.4422 5.82144 31.922 5.73235 32.3193 5.83105V5.83203C32.6378 5.91136 32.92 6.1163 33.0996 6.41113V6.41016C33.2295 6.62355 33.3194 6.91603 33.3623 7.37109C33.409 7.86594 33.3901 8.3428 33.3945 9.03809C33.4021 10.2152 33.4683 12.0268 34.958 13.3799L35.1064 13.5088V13.5098C36.1149 14.3519 37.4292 14.6976 38.1973 14.9414C39.1292 15.2373 39.5683 15.4479 39.834 15.7607V15.7598C40.0324 15.9935 40.1443 16.2935 40.1494 16.6055L40.1455 16.7402C40.1248 16.9913 40.0252 17.2825 39.7939 17.6768C39.542 18.1062 39.2506 18.4776 38.8496 19.0449C38.1691 20.0079 37.1786 21.5141 37.6045 23.4805L37.6504 23.6719C37.9779 24.9314 38.8252 25.976 39.3008 26.625C39.8032 27.3107 40.0471 27.7285 40.123 28.1016L40.1455 28.2598C40.1716 28.5744 40.0866 28.8844 39.9131 29.1357L39.834 29.2393C39.6751 29.4263 39.4305 29.6005 39.0166 29.7812C38.5653 29.9783 38.1129 30.1059 37.457 30.3262C36.3106 30.7112 34.543 31.3685 33.7676 33.3525C33.289 34.5765 33.3692 35.9352 33.376 36.749C33.3832 37.6099 33.3345 38.0969 33.1748 38.4473L33.0996 38.5889C32.9425 38.8469 32.7072 39.0364 32.4375 39.1328L32.3193 39.168C32.0874 39.2256 31.7933 39.2239 31.3564 39.126C30.881 39.0194 30.4383 38.8542 29.7822 38.6416C28.6752 38.2829 26.9307 37.768 25.1836 38.7686L25.0146 38.8701C23.881 39.5839 23.1373 40.7625 22.6631 41.4336C22.1578 42.1485 21.8339 42.5118 21.502 42.6943L21.3584 42.7617H21.3574C21.0996 42.8644 20.8176 42.8779 20.5537 42.8008L20.4424 42.7617H20.4414C20.0552 42.6079 19.7141 42.2507 19.1367 41.4336C18.6921 40.8045 18.0106 39.7298 16.9932 39.0098L16.7852 38.8701C14.9959 37.7436 13.1616 38.2779 12.0205 38.6416C11.3605 38.852 10.9127 39.0174 10.4336 39.124C10.1011 39.198 9.85452 39.2167 9.65918 39.1982L9.48047 39.168C9.20178 39.0986 8.95106 38.9332 8.77246 38.6953L8.7002 38.5898V38.5889C8.57034 38.3755 8.48042 38.083 8.4375 37.6279C8.39088 37.1332 8.40973 36.657 8.40527 35.9619C8.39772 34.7848 8.33164 32.9732 6.8418 31.6201L6.69336 31.4912V31.4902C5.68495 30.6481 4.3705 30.3024 3.60254 30.0586C2.78703 29.7997 2.3489 29.6065 2.07422 29.3525L1.96582 29.2393C1.76781 29.0059 1.65559 28.7066 1.65039 28.3945L1.6543 28.2598C1.68878 27.8426 1.92481 27.4086 2.49902 26.625C2.94493 26.0165 3.71827 25.0604 4.08301 23.9053L4.15039 23.6719C4.68268 21.625 3.64703 20.0423 2.9502 19.0479C2.54981 18.4765 2.25784 18.0996 2.00488 17.667C1.8301 17.368 1.73124 17.1317 1.68457 16.9307L1.6543 16.7402C1.62457 16.3805 1.74008 16.0278 1.9668 15.7607L1.96582 15.7598C2.12458 15.5728 2.36969 15.3994 2.7832 15.2188C3.23437 15.0218 3.68696 14.8931 4.34277 14.6729C5.45335 14.2999 7.1462 13.6719 7.95605 11.8291L8.03223 11.6475C8.51071 10.4235 8.43157 9.06486 8.4248 8.25098C8.41767 7.39029 8.4653 6.90319 8.625 6.55273L8.7002 6.41016C8.85718 6.15251 9.09268 5.96355 9.3623 5.86719L9.48047 5.83203C9.87792 5.73314 10.3579 5.82119 11.2998 6.14062C12.0246 6.38644 13.2004 6.8506 14.4424 6.82812L14.6914 6.81738C16.8224 6.66322 17.9807 5.14222 18.6875 4.16602C19.0935 3.60529 19.3576 3.20613 19.6807 2.83984C19.904 2.58661 20.0945 2.42497 20.2705 2.32227L20.4424 2.23828Z" stroke="#7DFFC8" stroke-opacity="0.1" stroke-width="3.3" stroke-linejoin="round"/>
<path d="M29 17L18 28L13 23" stroke="white" stroke-width="3" stroke-linecap="round" stroke-linejoin="round"/>
<defs>
<linearGradient id="paint0_linear_12_3644" x1="20.9" y1="0.5" x2="20.9" y2="44.5" gradientUnits="userSpaceOnUse">
<stop stop-color="white" stop-opacity="0.6"/>
<stop offset="1" stop-color="white" stop-opacity="0.1"/>
</linearGradient>
</defs>
</svg>
